<svg xmlns="http://www.w3.org/2000/svg" width="1500" height="1500" viewBox="0 0 1500 1500">
  <rect width="1500" height="1500" fill="#fcfbf6" />
  <g fill="#c2502b" transform="translate(244.218 751.979) scale(0.074134 -0.074134)">
    <path transform="translate(0 0)" d="M947 1365L815 1391L929 1489L947 1489L1013 1016L987 1011L792 1342L858 1259Q789 1324 710 1359.5Q631 1395 545 1395Q417 1395 358.5 1335Q300 1275 300 1179Q300 1111 330 1065.5Q360 1020 411.5 989.5Q463 959 528.5 935Q594 911 665 886Q737 862 808 829.5Q879 797 937 748Q995 699 1030 624.5Q1065 550 1065 439Q1065 301 991 197Q917 93 794 35Q671 -23 520 -23Q416 -23 333.5 -9Q251 5 162 40L78 431L109 431L372 21L208 131Q294 81 363 54Q432 27 509 27Q630 27 711.5 63Q793 99 835 165.5Q877 232 877 325Q877 411 841 466.5Q805 522 745.5 559Q686 596 614.5 622.5Q543 649 473 676Q402 703 339 733.5Q276 764 227.5 806Q179 848 150.5 908.5Q122 969 122 1054Q122 1177 181.5 1266Q241 1355 349 1404Q457 1453 604 1453Q701 1453 782 1432Q863 1411 947 1365Z" />
    <path transform="translate(1067 0)" d="M401 276Q401 204 446 168Q491 132 568 132Q613 132 662 139.5Q711 147 776 166L776 132Q680 71 617.5 38Q555 5 508.5 -9Q462 -23 412 -23Q345 -23 289.5 5Q234 33 200.5 93.5Q167 154 167 251L167 876L32 968L32 985Q42 992 67 1006.5Q92 1021 127.5 1042.5Q163 1064 206 1090.5Q249 1117 295.5 1146Q342 1175 390 1204L401 1204L401 991ZM317 901L317 1024L746 1024L729 901Z" />
    <path transform="translate(1710 0)" d="M694 661L701 616Q576 576 499 539Q422 502 381.5 465Q341 428 326 386Q311 344 311 293Q311 209 355.5 167.5Q400 126 466 126Q517 126 554.5 146Q592 166 612.5 205Q633 244 633 303L633 766Q633 863 585 913Q537 963 439 963Q390 963 344.5 957Q299 951 272 939L321 985Q317 938 310 897Q303 856 294 825Q285 794 271 778Q257 760 229 749.5Q201 739 170 739Q129 739 106 754.5Q83 770 83 800Q83 844 125 887Q167 930 234.5 966Q302 1002 382 1024Q462 1046 539 1046Q659 1046 731 1011.5Q803 977 836 913.5Q869 850 869 765L869 188Q869 158 878.5 139.5Q888 121 905.5 112.5Q923 104 947 104Q977 104 1008 113.5Q1039 123 1072 145L1072 110Q997 27 936.5 2.5Q876 -22 808 -22Q743 -22 705.5 5Q668 32 651 85.5Q634 139 632 216L638 213Q620 142 581.5 89Q543 36 488.5 7.5Q434 -21 369 -21Q238 -21 156.5 46.5Q75 114 75 239Q75 303 97 353.5Q119 404 183 449.5Q247 495 370 545Q493 595 694 661Z" />
    <path transform="translate(2574 0)" d="M414 845L414 58L543 28L543 0L48 0L48 28L180 59L180 833Q164 845 134 868Q104 891 43 933L43 955L406 1055L414 1055ZM700 28L831 58L831 691Q831 754 809.5 795.5Q788 837 744.5 857Q701 877 633 877Q562 877 498 858.5Q434 840 386 817L376 837Q454 903 511 944Q568 985 612 1006.5Q656 1028 697.5 1036Q739 1044 787 1044Q932 1044 998.5 966Q1065 888 1065 725L1065 59L1197 28L1197 0L700 0Z" />
    <path transform="translate(3669 0)" d="M811 785Q811 877 749 935Q687 993 592 993Q505 993 443 944Q381 895 348.5 796Q316 697 316 547Q316 403 347.5 310.5Q379 218 443 173.5Q507 129 604 129Q680 129 744 155Q808 181 866 242L878 219Q817 148 765.5 101Q714 54 668.5 27Q623 0 580.5 -11Q538 -22 496 -22Q366 -22 270 38.5Q174 99 122 208.5Q70 318 70 462Q70 602 111.5 710.5Q153 819 227.5 894Q302 969 404.5 1007.5Q507 1046 630 1046Q690 1046 751 1037.5Q812 1029 870.5 1011.5Q929 994 978 966L811 943L811 1285Q799 1292 771.5 1308Q744 1324 711 1343Q678 1362 649 1378L649 1399L1050 1486L1058 1486L1046 1319L1046 118Q1055 113 1074.5 104.5Q1094 96 1117 85.5Q1140 75 1162.5 65Q1185 55 1201 47L1201 24L827 -30L817 -30L811 121Z" />
    <path transform="translate(4731 0)" d="M694 661L701 616Q576 576 499 539Q422 502 381.5 465Q341 428 326 386Q311 344 311 293Q311 209 355.5 167.5Q400 126 466 126Q517 126 554.5 146Q592 166 612.5 205Q633 244 633 303L633 766Q633 863 585 913Q537 963 439 963Q390 963 344.5 957Q299 951 272 939L321 985Q317 938 310 897Q303 856 294 825Q285 794 271 778Q257 760 229 749.5Q201 739 170 739Q129 739 106 754.5Q83 770 83 800Q83 844 125 887Q167 930 234.5 966Q302 1002 382 1024Q462 1046 539 1046Q659 1046 731 1011.5Q803 977 836 913.5Q869 850 869 765L869 188Q869 158 878.5 139.5Q888 121 905.5 112.5Q923 104 947 104Q977 104 1008 113.5Q1039 123 1072 145L1072 110Q997 27 936.5 2.5Q876 -22 808 -22Q743 -22 705.5 5Q668 32 651 85.5Q634 139 632 216L638 213Q620 142 581.5 89Q543 36 488.5 7.5Q434 -21 369 -21Q238 -21 156.5 46.5Q75 114 75 239Q75 303 97 353.5Q119 404 183 449.5Q247 495 370 545Q493 595 694 661Z" />
    <path transform="translate(5595 0)" d="M738 1043Q786 1043 814 1015Q842 987 842 939Q842 880 805 842Q768 804 712 804Q684 804 659 810Q634 816 607.5 822.5Q581 829 548 829Q518 829 493 819.5Q468 810 444 793.5Q420 777 395 752L395 797Q473 882 526.5 931Q580 980 616.5 1004Q653 1028 681.5 1035.5Q710 1043 738 1043ZM414 855L414 59L566 28L566 0L48 0L48 28L180 59L180 833Q167 842 149 854.5Q131 867 105.5 886Q80 905 42 933L42 955L406 1055L414 1055Z" />
    <path transform="translate(6308 0)" d="M811 785Q811 877 749 935Q687 993 592 993Q505 993 443 944Q381 895 348.5 796Q316 697 316 547Q316 403 347.5 310.5Q379 218 443 173.5Q507 129 604 129Q680 129 744 155Q808 181 866 242L878 219Q817 148 765.5 101Q714 54 668.5 27Q623 0 580.5 -11Q538 -22 496 -22Q366 -22 270 38.5Q174 99 122 208.5Q70 318 70 462Q70 602 111.5 710.5Q153 819 227.5 894Q302 969 404.5 1007.5Q507 1046 630 1046Q690 1046 751 1037.5Q812 1029 870.5 1011.5Q929 994 978 966L811 943L811 1285Q799 1292 771.5 1308Q744 1324 711 1343Q678 1362 649 1378L649 1399L1050 1486L1058 1486L1046 1319L1046 118Q1055 113 1074.5 104.5Q1094 96 1117 85.5Q1140 75 1162.5 65Q1185 55 1201 47L1201 24L827 -30L817 -30L811 121Z" />
    <path transform="translate(7814 0)" d="M658 771Q804 771 885.5 848.5Q967 926 967 1077Q967 1169 932 1234.5Q897 1300 818.5 1334Q740 1368 610 1368L294 1368L320 1430L699 1430Q899 1430 1016 1385Q1133 1340 1182.5 1262.5Q1232 1185 1232 1085Q1232 996 1182.5 919.5Q1133 843 1034.5 794Q936 745 789 739L789 742Q886 740 949 715.5Q1012 691 1053 643.5Q1094 596 1128 520L1266 216Q1303 137 1331.5 99.5Q1360 62 1395.5 52Q1431 42 1488 42L1488 0Q1361 -10 1279.5 -8.5Q1198 -7 1148 11Q1098 29 1066.5 68.5Q1035 108 1005 172L844 535Q812 607 784 644.5Q756 682 725 695.5Q694 709 651 709L316 709L290 771ZM503 1430L503 75L677 30L677 0L63 0L63 30L237 75L237 1356L63 1399L63 1430Z" />
    <path transform="translate(9041 0)" d="M563 1046Q675 1046 756.5 1001Q838 956 885.5 868Q933 780 942 654L275 654L275 718L819 718L716 676Q707 788 684.5 857Q662 926 624.5 958.5Q587 991 532 991Q460 991 408 948.5Q356 906 329.5 820.5Q303 735 303 606Q303 443 344 341.5Q385 240 464.5 193.5Q544 147 659 147Q714 147 765.5 161.5Q817 176 863 205.5Q909 235 945 280L964 266Q899 159 834 96Q769 33 698 5.5Q627 -22 541 -22Q405 -22 298.5 37Q192 96 131 211.5Q70 327 70 493Q70 642 127.5 767.5Q185 893 295 969.5Q405 1046 563 1046Z" />
    <path transform="translate(9920 0)" d="M694 661L701 616Q576 576 499 539Q422 502 381.5 465Q341 428 326 386Q311 344 311 293Q311 209 355.5 167.5Q400 126 466 126Q517 126 554.5 146Q592 166 612.5 205Q633 244 633 303L633 766Q633 863 585 913Q537 963 439 963Q390 963 344.5 957Q299 951 272 939L321 985Q317 938 310 897Q303 856 294 825Q285 794 271 778Q257 760 229 749.5Q201 739 170 739Q129 739 106 754.5Q83 770 83 800Q83 844 125 887Q167 930 234.5 966Q302 1002 382 1024Q462 1046 539 1046Q659 1046 731 1011.5Q803 977 836 913.5Q869 850 869 765L869 188Q869 158 878.5 139.5Q888 121 905.5 112.5Q923 104 947 104Q977 104 1008 113.5Q1039 123 1072 145L1072 110Q997 27 936.5 2.5Q876 -22 808 -22Q743 -22 705.5 5Q668 32 651 85.5Q634 139 632 216L638 213Q620 142 581.5 89Q543 36 488.5 7.5Q434 -21 369 -21Q238 -21 156.5 46.5Q75 114 75 239Q75 303 97 353.5Q119 404 183 449.5Q247 495 370 545Q493 595 694 661Z" />
    <path transform="translate(10784 0)" d="M811 785Q811 877 749 935Q687 993 592 993Q505 993 443 944Q381 895 348.5 796Q316 697 316 547Q316 403 347.5 310.5Q379 218 443 173.5Q507 129 604 129Q680 129 744 155Q808 181 866 242L878 219Q817 148 765.5 101Q714 54 668.5 27Q623 0 580.5 -11Q538 -22 496 -22Q366 -22 270 38.5Q174 99 122 208.5Q70 318 70 462Q70 602 111.5 710.5Q153 819 227.5 894Q302 969 404.5 1007.5Q507 1046 630 1046Q690 1046 751 1037.5Q812 1029 870.5 1011.5Q929 994 978 966L811 943L811 1285Q799 1292 771.5 1308Q744 1324 711 1343Q678 1362 649 1378L649 1399L1050 1486L1058 1486L1046 1319L1046 118Q1055 113 1074.5 104.5Q1094 96 1117 85.5Q1140 75 1162.5 65Q1185 55 1201 47L1201 24L827 -30L817 -30L811 121Z" />
    <path transform="translate(11846 0)" d="M563 1046Q675 1046 756.5 1001Q838 956 885.5 868Q933 780 942 654L275 654L275 718L819 718L716 676Q707 788 684.5 857Q662 926 624.5 958.5Q587 991 532 991Q460 991 408 948.5Q356 906 329.5 820.5Q303 735 303 606Q303 443 344 341.5Q385 240 464.5 193.5Q544 147 659 147Q714 147 765.5 161.5Q817 176 863 205.5Q909 235 945 280L964 266Q899 159 834 96Q769 33 698 5.5Q627 -22 541 -22Q405 -22 298.5 37Q192 96 131 211.5Q70 327 70 493Q70 642 127.5 767.5Q185 893 295 969.5Q405 1046 563 1046Z" />
    <path transform="translate(12725 0)" d="M738 1043Q786 1043 814 1015Q842 987 842 939Q842 880 805 842Q768 804 712 804Q684 804 659 810Q634 816 607.5 822.5Q581 829 548 829Q518 829 493 819.5Q468 810 444 793.5Q420 777 395 752L395 797Q473 882 526.5 931Q580 980 616.5 1004Q653 1028 681.5 1035.5Q710 1043 738 1043ZM414 855L414 59L566 28L566 0L48 0L48 28L180 59L180 833Q167 842 149 854.5Q131 867 105.5 886Q80 905 42 933L42 955L406 1055L414 1055Z" />
  </g>
  <g fill="#8a847a" transform="translate(320.267 850.327) scale(0.016695 -0.016695)">
    <path transform="translate(0 0)" d="M348 523L348 601L1028 601L1028 523ZM1281 84L1432 35L1432 0L915 0L915 35L1092 82L615 1198L665 1198L227 85L401 35L401 0L-16 0L-16 35L137 87L668 1397L711 1397Z" />
    <path transform="translate(1706 0)" d="M1276 849L1139 883L1139 922L1475 922L1475 883L1360 849L1090 -22L1051 -22L715 727L761 727L449 -22L409 -22L127 840L1 883L1 922L434 922L434 883L298 844L507 189L466 173L765 946L798 946L1133 195L1091 173Z" />
    <path transform="translate(3100 0)" d="M644 593L658 535Q531 501 450.5 468Q370 435 326.5 401.5Q283 368 266.5 331Q250 294 250 249Q250 174 294 135Q338 96 402 96Q454 96 494.5 119.5Q535 143 559 183.5Q583 224 583 277L583 677Q583 762 540.5 809Q498 856 405 856Q368 856 324.5 847Q281 838 248 821L300 865Q297 833 291 800.5Q285 768 276.5 742Q268 716 256 702Q242 686 216.5 677.5Q191 669 166 669Q133 669 113.5 683.5Q94 698 94 723Q94 759 128.5 796.5Q163 834 218.5 866Q274 898 341 917.5Q408 937 473 937Q570 937 630 907.5Q690 878 717 823.5Q744 769 744 692L744 179Q744 148 753.5 127.5Q763 107 781.5 97Q800 87 825 87Q852 87 881.5 97Q911 107 940 126L940 88Q886 25 836 3Q786 -19 738 -19Q686 -19 651.5 4.5Q617 28 600.5 72.5Q584 117 583 178L587 184Q573 125 536.5 79Q500 33 448.5 6.5Q397 -20 337 -20Q228 -20 155.5 40Q83 100 83 214Q83 274 105.5 321.5Q128 369 188 412Q248 455 358.5 498.5Q469 542 644 593Z" />
    <path transform="translate(3964 0)" d="M658 937Q706 937 730 912.5Q754 888 754 847Q754 799 723.5 769.5Q693 740 643 740Q621 740 598.5 747Q576 754 551.5 761Q527 768 497 768Q472 768 444.5 760Q417 752 391 737.5Q365 723 342 704L329 742Q395 801 445 838.5Q495 876 533.5 897.5Q572 919 602.5 928Q633 937 658 937ZM358 759L358 74L516 33L516 0L48 0L48 33L197 74L197 748Q184 760 164 771.5Q144 783 116 796.5Q88 810 51 827L51 849L338 947L352 947Z" />
    <path transform="translate(4719 0)" d="M358 759L358 74L502 33L502 0L48 0L48 33L197 74L197 748Q181 762 150 779Q119 796 51 827L51 849L326 947L340 947ZM924 676L924 74L1067 33L1067 0L617 0L617 33L762 74L762 631Q762 688 739.5 726Q717 764 674 783Q631 802 571 802Q501 802 436.5 779Q372 756 340 723L313 756Q373 810 421 846Q469 882 512 903Q555 924 596.5 933Q638 942 685 942Q771 942 823 908Q875 874 899.5 814Q924 754 924 676ZM1489 641L1489 74L1638 33L1638 0L1183 0L1183 33L1327 74L1327 631Q1327 689 1304.5 726.5Q1282 764 1239.5 783Q1197 802 1136 802Q1067 802 1002.5 779Q938 756 906 723L879 756Q939 810 987 846Q1035 882 1077.5 903Q1120 924 1162 933Q1204 942 1250 942Q1377 942 1433 866Q1489 790 1489 641Z" />
    <path transform="translate(6754 0)" d="M658 937Q706 937 730 912.5Q754 888 754 847Q754 799 723.5 769.5Q693 740 643 740Q621 740 598.5 747Q576 754 551.5 761Q527 768 497 768Q472 768 444.5 760Q417 752 391 737.5Q365 723 342 704L329 742Q395 801 445 838.5Q495 876 533.5 897.5Q572 919 602.5 928Q633 937 658 937ZM358 759L358 74L516 33L516 0L48 0L48 33L197 74L197 748Q184 760 164 771.5Q144 783 116 796.5Q88 810 51 827L51 849L338 947L352 947Z" />
    <path transform="translate(7477 0)" d="M507 942Q607 942 681 899Q755 856 798.5 772.5Q842 689 852 568L220 568L221 631L750 646L678 604Q670 691 647 751.5Q624 812 584.5 843.5Q545 875 485 875Q411 875 356 833Q301 791 271 711Q241 631 241 516Q241 382 284.5 291.5Q328 201 408 155Q488 109 598 109Q643 109 686 121Q729 133 769.5 157.5Q810 182 843 217L865 197Q810 120 753.5 72Q697 24 635 2Q573 -20 500 -20Q378 -20 282 37.5Q186 95 130.5 199.5Q75 304 75 447Q75 582 126.5 694.5Q178 807 275 874.5Q372 942 507 942Z" />
    <path transform="translate(8356 0)" d="M644 593L658 535Q531 501 450.5 468Q370 435 326.5 401.5Q283 368 266.5 331Q250 294 250 249Q250 174 294 135Q338 96 402 96Q454 96 494.5 119.5Q535 143 559 183.5Q583 224 583 277L583 677Q583 762 540.5 809Q498 856 405 856Q368 856 324.5 847Q281 838 248 821L300 865Q297 833 291 800.5Q285 768 276.5 742Q268 716 256 702Q242 686 216.5 677.5Q191 669 166 669Q133 669 113.5 683.5Q94 698 94 723Q94 759 128.5 796.5Q163 834 218.5 866Q274 898 341 917.5Q408 937 473 937Q570 937 630 907.5Q690 878 717 823.5Q744 769 744 692L744 179Q744 148 753.5 127.5Q763 107 781.5 97Q800 87 825 87Q852 87 881.5 97Q911 107 940 126L940 88Q886 25 836 3Q786 -19 738 -19Q686 -19 651.5 4.5Q617 28 600.5 72.5Q584 117 583 178L587 184Q573 125 536.5 79Q500 33 448.5 6.5Q397 -20 337 -20Q228 -20 155.5 40Q83 100 83 214Q83 274 105.5 321.5Q128 369 188 412Q248 455 358.5 498.5Q469 542 644 593Z" />
    <path transform="translate(9220 0)" d="M785 667Q785 756 721 814.5Q657 873 546 873Q453 873 388 825.5Q323 778 289.5 689.5Q256 601 256 476Q256 352 291 268.5Q326 185 392 142.5Q458 100 550 100Q631 100 702 126Q773 152 840 212L846 162Q778 108 726.5 72Q675 36 633 16Q591 -4 553.5 -12Q516 -20 478 -20Q351 -20 261 35Q171 90 123.5 188Q76 286 76 415Q76 539 114.5 636.5Q153 734 221.5 802.5Q290 871 380.5 906.5Q471 942 576 942Q628 942 680 934Q732 926 784.5 908.5Q837 891 890 863L785 818L785 1274Q773 1285 750.5 1298Q728 1311 700 1324.5Q672 1338 643 1350L643 1368L945 1445L958 1445L947 1286L947 124Q956 117 973 108Q990 99 1010.5 89.5Q1031 80 1051 73Q1071 66 1087 62L1087 35L807 -20L793 -20L785 127Z" />
    <path transform="translate(10282 0)" d="M507 942Q607 942 681 899Q755 856 798.5 772.5Q842 689 852 568L220 568L221 631L750 646L678 604Q670 691 647 751.5Q624 812 584.5 843.5Q545 875 485 875Q411 875 356 833Q301 791 271 711Q241 631 241 516Q241 382 284.5 291.5Q328 201 408 155Q488 109 598 109Q643 109 686 121Q729 133 769.5 157.5Q810 182 843 217L865 197Q810 120 753.5 72Q697 24 635 2Q573 -20 500 -20Q378 -20 282 37.5Q186 95 130.5 199.5Q75 304 75 447Q75 582 126.5 694.5Q178 807 275 874.5Q372 942 507 942Z" />
    <path transform="translate(11161 0)" d="M658 937Q706 937 730 912.5Q754 888 754 847Q754 799 723.5 769.5Q693 740 643 740Q621 740 598.5 747Q576 754 551.5 761Q527 768 497 768Q472 768 444.5 760Q417 752 391 737.5Q365 723 342 704L329 742Q395 801 445 838.5Q495 876 533.5 897.5Q572 919 602.5 928Q633 937 658 937ZM358 759L358 74L516 33L516 0L48 0L48 33L197 74L197 748Q184 760 164 771.5Q144 783 116 796.5Q88 810 51 827L51 849L338 947L352 947Z" />
    <path transform="translate(12314 0)" d="M250 824L210 804L36 833L36 865L223 924L271 922L659 922L642 824ZM368 74L535 33L535 0L55 0L55 33L204 74L204 940Q204 1067 245.5 1162Q287 1257 358.5 1320Q430 1383 520.5 1414Q611 1445 707 1445Q760 1445 797.5 1436.5Q835 1428 859.5 1413Q884 1398 895.5 1378.5Q907 1359 907 1337Q907 1299 881 1272Q855 1245 816 1245Q792 1245 768 1262.5Q744 1280 716.5 1302.5Q689 1325 655.5 1342Q622 1359 579 1359Q519 1359 471.5 1331Q424 1303 396 1239.5Q368 1176 368 1072Z" />
    <path transform="translate(12922 0)" d="M532 44Q616 44 677.5 88Q739 132 773 221.5Q807 311 807 446Q807 588 773.5 684Q740 780 678.5 829.5Q617 879 530 879Q446 879 384 834.5Q322 790 288.5 700.5Q255 611 255 476Q255 335 288 238.5Q321 142 383.5 93Q446 44 532 44ZM527 -20Q397 -20 294.5 40.5Q192 101 133 208.5Q74 316 74 456Q74 597 135 707Q196 817 300 879.5Q404 942 534 942Q666 942 768 881.5Q870 821 928.5 714Q987 607 987 467Q987 325 926 215Q865 105 760.5 42.5Q656 -20 527 -20Z" />
    <path transform="translate(13931 0)" d="M658 937Q706 937 730 912.5Q754 888 754 847Q754 799 723.5 769.5Q693 740 643 740Q621 740 598.5 747Q576 754 551.5 761Q527 768 497 768Q472 768 444.5 760Q417 752 391 737.5Q365 723 342 704L329 742Q395 801 445 838.5Q495 876 533.5 897.5Q572 919 602.5 928Q633 937 658 937ZM358 759L358 74L516 33L516 0L48 0L48 33L197 74L197 748Q184 760 164 771.5Q144 783 116 796.5Q88 810 51 827L51 849L338 947L352 947Z" />
    <path transform="translate(15084 0)" d="M415 942Q476 942 525.5 929.5Q575 917 633 888L655 637L616 637L506 892L578 806Q534 846 495.5 864.5Q457 883 406 883Q327 883 281.5 847Q236 811 236 745Q236 699 258.5 666.5Q281 634 327.5 606.5Q374 579 447 549Q501 527 544 500Q587 473 616.5 439Q646 405 662 361.5Q678 318 678 262Q678 175 632.5 111.5Q587 48 511 14Q435 -20 340 -20Q275 -20 223 -9Q171 2 122 26L72 297L114 297L261 17L168 85Q201 66 228 56Q255 46 280 41.5Q305 37 330 37Q421 37 481.5 80Q542 123 542 208Q542 248 525.5 277.5Q509 307 478.5 331Q448 355 406 376Q364 397 312 419Q244 449 198 485.5Q152 522 128.5 572.5Q105 623 105 691Q105 771 147 827Q189 883 259 912.5Q329 942 415 942Z" />
    <path transform="translate(15791 0)" d="M324 249Q324 179 367 144Q410 109 486 109Q524 109 568 116.5Q612 124 667 140L667 100Q594 54 545 28Q496 2 458.5 -8Q421 -18 382 -18Q320 -18 270.5 7Q221 32 192 84Q163 136 163 216L163 790L47 866L47 883Q64 895 85 910Q106 925 130 942Q154 959 181.5 979Q209 999 239.5 1020.5Q270 1042 302 1065L324 1065L324 890ZM265 824L265 922L638 922L622 824Z" />
    <path transform="translate(16434 0)" d="M644 593L658 535Q531 501 450.5 468Q370 435 326.5 401.5Q283 368 266.5 331Q250 294 250 249Q250 174 294 135Q338 96 402 96Q454 96 494.5 119.5Q535 143 559 183.5Q583 224 583 277L583 677Q583 762 540.5 809Q498 856 405 856Q368 856 324.5 847Q281 838 248 821L300 865Q297 833 291 800.5Q285 768 276.5 742Q268 716 256 702Q242 686 216.5 677.5Q191 669 166 669Q133 669 113.5 683.5Q94 698 94 723Q94 759 128.5 796.5Q163 834 218.5 866Q274 898 341 917.5Q408 937 473 937Q570 937 630 907.5Q690 878 717 823.5Q744 769 744 692L744 179Q744 148 753.5 127.5Q763 107 781.5 97Q800 87 825 87Q852 87 881.5 97Q911 107 940 126L940 88Q886 25 836 3Q786 -19 738 -19Q686 -19 651.5 4.5Q617 28 600.5 72.5Q584 117 583 178L587 184Q573 125 536.5 79Q500 33 448.5 6.5Q397 -20 337 -20Q228 -20 155.5 40Q83 100 83 214Q83 274 105.5 321.5Q128 369 188 412Q248 455 358.5 498.5Q469 542 644 593Z" />
    <path transform="translate(17298 0)" d="M358 759L358 74L508 33L508 0L48 0L48 33L197 74L197 748Q181 762 150 779Q119 796 51 827L51 849L326 947L340 947ZM652 33L803 74L803 616Q803 675 779.5 717Q756 759 710 780.5Q664 802 594 802Q515 802 446 776Q377 750 342 716L314 744Q377 801 428.5 839.5Q480 878 525.5 900.5Q571 923 615.5 932.5Q660 942 710 942Q842 942 903 864Q964 786 964 617L964 74L1114 33L1114 0L652 0Z" />
    <path transform="translate(18393 0)" d="M785 667Q785 756 721 814.5Q657 873 546 873Q453 873 388 825.5Q323 778 289.5 689.5Q256 601 256 476Q256 352 291 268.5Q326 185 392 142.5Q458 100 550 100Q631 100 702 126Q773 152 840 212L846 162Q778 108 726.5 72Q675 36 633 16Q591 -4 553.5 -12Q516 -20 478 -20Q351 -20 261 35Q171 90 123.5 188Q76 286 76 415Q76 539 114.5 636.5Q153 734 221.5 802.5Q290 871 380.5 906.5Q471 942 576 942Q628 942 680 934Q732 926 784.5 908.5Q837 891 890 863L785 818L785 1274Q773 1285 750.5 1298Q728 1311 700 1324.5Q672 1338 643 1350L643 1368L945 1445L958 1445L947 1286L947 124Q956 117 973 108Q990 99 1010.5 89.5Q1031 80 1051 73Q1071 66 1087 62L1087 35L807 -20L793 -20L785 127Z" />
    <path transform="translate(19455 0)" d="M644 593L658 535Q531 501 450.5 468Q370 435 326.5 401.5Q283 368 266.5 331Q250 294 250 249Q250 174 294 135Q338 96 402 96Q454 96 494.5 119.5Q535 143 559 183.5Q583 224 583 277L583 677Q583 762 540.5 809Q498 856 405 856Q368 856 324.5 847Q281 838 248 821L300 865Q297 833 291 800.5Q285 768 276.5 742Q268 716 256 702Q242 686 216.5 677.5Q191 669 166 669Q133 669 113.5 683.5Q94 698 94 723Q94 759 128.5 796.5Q163 834 218.5 866Q274 898 341 917.5Q408 937 473 937Q570 937 630 907.5Q690 878 717 823.5Q744 769 744 692L744 179Q744 148 753.5 127.5Q763 107 781.5 97Q800 87 825 87Q852 87 881.5 97Q911 107 940 126L940 88Q886 25 836 3Q786 -19 738 -19Q686 -19 651.5 4.5Q617 28 600.5 72.5Q584 117 583 178L587 184Q573 125 536.5 79Q500 33 448.5 6.5Q397 -20 337 -20Q228 -20 155.5 40Q83 100 83 214Q83 274 105.5 321.5Q128 369 188 412Q248 455 358.5 498.5Q469 542 644 593Z" />
    <path transform="translate(20319 0)" d="M658 937Q706 937 730 912.5Q754 888 754 847Q754 799 723.5 769.5Q693 740 643 740Q621 740 598.5 747Q576 754 551.5 761Q527 768 497 768Q472 768 444.5 760Q417 752 391 737.5Q365 723 342 704L329 742Q395 801 445 838.5Q495 876 533.5 897.5Q572 919 602.5 928Q633 937 658 937ZM358 759L358 74L516 33L516 0L48 0L48 33L197 74L197 748Q184 760 164 771.5Q144 783 116 796.5Q88 810 51 827L51 849L338 947L352 947Z" />
    <path transform="translate(21032 0)" d="M785 667Q785 756 721 814.5Q657 873 546 873Q453 873 388 825.5Q323 778 289.5 689.5Q256 601 256 476Q256 352 291 268.5Q326 185 392 142.5Q458 100 550 100Q631 100 702 126Q773 152 840 212L846 162Q778 108 726.5 72Q675 36 633 16Q591 -4 553.5 -12Q516 -20 478 -20Q351 -20 261 35Q171 90 123.5 188Q76 286 76 415Q76 539 114.5 636.5Q153 734 221.5 802.5Q290 871 380.5 906.5Q471 942 576 942Q628 942 680 934Q732 926 784.5 908.5Q837 891 890 863L785 818L785 1274Q773 1285 750.5 1298Q728 1311 700 1324.5Q672 1338 643 1350L643 1368L945 1445L958 1445L947 1286L947 124Q956 117 973 108Q990 99 1010.5 89.5Q1031 80 1051 73Q1071 66 1087 62L1087 35L807 -20L793 -20L785 127Z" />
    <path transform="translate(22094 0)" d="M225 238Q282 238 318 201.5Q354 165 354 111Q354 58 318 21Q282 -16 225 -16Q170 -16 133 21Q96 58 96 111Q96 165 133 201.5Q170 238 225 238Z" />
    <path transform="translate(22534 0)" d="M415 942Q476 942 525.5 929.5Q575 917 633 888L655 637L616 637L506 892L578 806Q534 846 495.5 864.5Q457 883 406 883Q327 883 281.5 847Q236 811 236 745Q236 699 258.5 666.5Q281 634 327.5 606.5Q374 579 447 549Q501 527 544 500Q587 473 616.5 439Q646 405 662 361.5Q678 318 678 262Q678 175 632.5 111.5Q587 48 511 14Q435 -20 340 -20Q275 -20 223 -9Q171 2 122 26L72 297L114 297L261 17L168 85Q201 66 228 56Q255 46 280 41.5Q305 37 330 37Q421 37 481.5 80Q542 123 542 208Q542 248 525.5 277.5Q509 307 478.5 331Q448 355 406 376Q364 397 312 419Q244 449 198 485.5Q152 522 128.5 572.5Q105 623 105 691Q105 771 147 827Q189 883 259 912.5Q329 942 415 942Z" />
    <path transform="translate(23241 0)" d="M267 1190Q210 1190 175.5 1227.5Q141 1265 141 1317Q141 1368 175.5 1404Q210 1440 267 1440Q324 1440 358 1404Q392 1368 392 1317Q392 1265 358 1227.5Q324 1190 267 1190ZM364 947L361 771L361 74L511 33L511 0L51 0L51 33L199 74L199 755Q188 765 165 779.5Q142 794 113 809.5Q84 825 53 838L53 864L352 947Z" />
    <path transform="translate(23775 0)" d="M324 249Q324 179 367 144Q410 109 486 109Q524 109 568 116.5Q612 124 667 140L667 100Q594 54 545 28Q496 2 458.5 -8Q421 -18 382 -18Q320 -18 270.5 7Q221 32 192 84Q163 136 163 216L163 790L47 866L47 883Q64 895 85 910Q106 925 130 942Q154 959 181.5 979Q209 999 239.5 1020.5Q270 1042 302 1065L324 1065L324 890ZM265 824L265 922L638 922L622 824Z" />
    <path transform="translate(24404 0)" d="M507 942Q607 942 681 899Q755 856 798.5 772.5Q842 689 852 568L220 568L221 631L750 646L678 604Q670 691 647 751.5Q624 812 584.5 843.5Q545 875 485 875Q411 875 356 833Q301 791 271 711Q241 631 241 516Q241 382 284.5 291.5Q328 201 408 155Q488 109 598 109Q643 109 686 121Q729 133 769.5 157.5Q810 182 843 217L865 197Q810 120 753.5 72Q697 24 635 2Q573 -20 500 -20Q378 -20 282 37.5Q186 95 130.5 199.5Q75 304 75 447Q75 582 126.5 694.5Q178 807 275 874.5Q372 942 507 942Z" />
    <path transform="translate(25727 0)" d="M869 446Q869 632 791 727Q713 822 575 822Q518 822 466 811Q414 800 367.5 777Q321 754 279 716L273 766Q333 816 386 849.5Q439 883 485.5 903.5Q532 924 573.5 933Q615 942 651 942Q779 942 868 887Q957 832 1003 734.5Q1049 637 1049 507Q1049 343 982.5 225Q916 107 803 43.5Q690 -20 549 -20Q497 -20 445 -12Q393 -4 341 13.5Q289 31 235 59L340 59L340 -410L507 -451L507 -484L30 -484L30 -451L178 -410L178 748Q165 760 145.5 771.5Q126 783 97.5 796.5Q69 810 32 827L32 849L308 947L322 947L340 807L340 255Q340 196 371 149Q402 102 457.5 75.5Q513 49 585 49Q675 49 738.5 96.5Q802 144 835.5 233Q869 322 869 446Z" />
    <path transform="translate(26808 0)" d="M331 295Q331 232 350.5 192.5Q370 153 413.5 135Q457 117 530 117Q602 117 668.5 142Q735 167 768 202L798 171Q736 115 687 78Q638 41 595 19.5Q552 -2 510 -11Q468 -20 421 -20Q290 -20 229.5 57.5Q169 135 169 295L169 831L13 880L13 919L340 934L331 832ZM751 -20L742 165L742 831L585 880L585 919L914 934L904 832L904 124Q913 117 930 108Q947 99 967.5 89.5Q988 80 1008 73Q1028 66 1044 62L1044 35L764 -20Z" />
    <path transform="translate(27831 0)" d="M204 59L316 70L142 -24L118 -14L147 213L147 1251Q134 1264 113 1279Q92 1294 61.5 1311Q31 1328 -8 1348L-8 1366L303 1445L320 1445L309 1283L309 255Q309 196 339.5 149.5Q370 103 425.5 76Q481 49 554 49Q644 49 707.5 96.5Q771 144 804.5 233Q838 322 838 446Q838 570 802.5 654Q767 738 701.5 780Q636 822 543 822Q486 822 433.5 811Q381 800 335 777Q289 754 248 716L241 766Q300 814 352 848Q404 882 450.5 902.5Q497 923 539 932.5Q581 942 620 942Q748 942 836.5 887Q925 832 971.5 734.5Q1018 637 1018 507Q1018 386 980.5 288.5Q943 191 875 122Q807 53 714.5 16.5Q622 -20 511 -20Q463 -20 412 -12Q361 -4 309 13.5Q257 31 204 59Z" />
    <path transform="translate(28877 0)" d="M342 74L493 33L493 0L33 0L33 33L181 74L181 1258Q168 1269 146 1283Q124 1297 93 1312.5Q62 1328 23 1345L23 1364L335 1445L348 1445L342 1280Z" />
    <path transform="translate(29390 0)" d="M267 1190Q210 1190 175.5 1227.5Q141 1265 141 1317Q141 1368 175.5 1404Q210 1440 267 1440Q324 1440 358 1404Q392 1368 392 1317Q392 1265 358 1227.5Q324 1190 267 1190ZM364 947L361 771L361 74L511 33L511 0L51 0L51 33L199 74L199 755Q188 765 165 779.5Q142 794 113 809.5Q84 825 53 838L53 864L352 947Z" />
    <path transform="translate(29924 0)" d="M568 942Q655 942 709 923Q763 904 787.5 874.5Q812 845 812 814Q812 784 800 762.5Q788 741 766.5 729Q745 717 716 717Q695 717 674.5 732.5Q654 748 632.5 770.5Q611 793 587 816Q563 839 535 854.5Q507 870 474 870Q412 870 358.5 833.5Q305 797 272.5 721.5Q240 646 240 530Q240 392 280 298Q320 204 395 156.5Q470 109 576 109Q641 109 702 136.5Q763 164 812 217L833 197Q780 120 726 72Q672 24 612 2Q552 -20 481 -20Q364 -20 272 36.5Q180 93 127.5 196.5Q75 300 75 439Q75 545 109.5 636Q144 727 208 796Q272 865 363 903.5Q454 942 568 942Z" />
    <path transform="translate(30753 0)" d="M644 593L658 535Q531 501 450.5 468Q370 435 326.5 401.5Q283 368 266.5 331Q250 294 250 249Q250 174 294 135Q338 96 402 96Q454 96 494.5 119.5Q535 143 559 183.5Q583 224 583 277L583 677Q583 762 540.5 809Q498 856 405 856Q368 856 324.5 847Q281 838 248 821L300 865Q297 833 291 800.5Q285 768 276.5 742Q268 716 256 702Q242 686 216.5 677.5Q191 669 166 669Q133 669 113.5 683.5Q94 698 94 723Q94 759 128.5 796.5Q163 834 218.5 866Q274 898 341 917.5Q408 937 473 937Q570 937 630 907.5Q690 878 717 823.5Q744 769 744 692L744 179Q744 148 753.5 127.5Q763 107 781.5 97Q800 87 825 87Q852 87 881.5 97Q911 107 940 126L940 88Q886 25 836 3Q786 -19 738 -19Q686 -19 651.5 4.5Q617 28 600.5 72.5Q584 117 583 178L587 184Q573 125 536.5 79Q500 33 448.5 6.5Q397 -20 337 -20Q228 -20 155.5 40Q83 100 83 214Q83 274 105.5 321.5Q128 369 188 412Q248 455 358.5 498.5Q469 542 644 593Z" />
    <path transform="translate(31617 0)" d="M324 249Q324 179 367 144Q410 109 486 109Q524 109 568 116.5Q612 124 667 140L667 100Q594 54 545 28Q496 2 458.5 -8Q421 -18 382 -18Q320 -18 270.5 7Q221 32 192 84Q163 136 163 216L163 790L47 866L47 883Q64 895 85 910Q106 925 130 942Q154 959 181.5 979Q209 999 239.5 1020.5Q270 1042 302 1065L324 1065L324 890ZM265 824L265 922L638 922L622 824Z" />
    <path transform="translate(32260 0)" d="M267 1190Q210 1190 175.5 1227.5Q141 1265 141 1317Q141 1368 175.5 1404Q210 1440 267 1440Q324 1440 358 1404Q392 1368 392 1317Q392 1265 358 1227.5Q324 1190 267 1190ZM364 947L361 771L361 74L511 33L511 0L51 0L51 33L199 74L199 755Q188 765 165 779.5Q142 794 113 809.5Q84 825 53 838L53 864L352 947Z" />
    <path transform="translate(32794 0)" d="M532 44Q616 44 677.5 88Q739 132 773 221.5Q807 311 807 446Q807 588 773.5 684Q740 780 678.5 829.5Q617 879 530 879Q446 879 384 834.5Q322 790 288.5 700.5Q255 611 255 476Q255 335 288 238.5Q321 142 383.5 93Q446 44 532 44ZM527 -20Q397 -20 294.5 40.5Q192 101 133 208.5Q74 316 74 456Q74 597 135 707Q196 817 300 879.5Q404 942 534 942Q666 942 768 881.5Q870 821 928.5 714Q987 607 987 467Q987 325 926 215Q865 105 760.5 42.5Q656 -20 527 -20Z" />
    <path transform="translate(33803 0)" d="M358 759L358 74L508 33L508 0L48 0L48 33L197 74L197 748Q181 762 150 779Q119 796 51 827L51 849L326 947L340 947ZM652 33L803 74L803 616Q803 675 779.5 717Q756 759 710 780.5Q664 802 594 802Q515 802 446 776Q377 750 342 716L314 744Q377 801 428.5 839.5Q480 878 525.5 900.5Q571 923 615.5 932.5Q660 942 710 942Q842 942 903 864Q964 786 964 617L964 74L1114 33L1114 0L652 0Z" />
    <path transform="translate(34898 0)" d="M415 942Q476 942 525.5 929.5Q575 917 633 888L655 637L616 637L506 892L578 806Q534 846 495.5 864.5Q457 883 406 883Q327 883 281.5 847Q236 811 236 745Q236 699 258.5 666.5Q281 634 327.5 606.5Q374 579 447 549Q501 527 544 500Q587 473 616.5 439Q646 405 662 361.5Q678 318 678 262Q678 175 632.5 111.5Q587 48 511 14Q435 -20 340 -20Q275 -20 223 -9Q171 2 122 26L72 297L114 297L261 17L168 85Q201 66 228 56Q255 46 280 41.5Q305 37 330 37Q421 37 481.5 80Q542 123 542 208Q542 248 525.5 277.5Q509 307 478.5 331Q448 355 406 376Q364 397 312 419Q244 449 198 485.5Q152 522 128.5 572.5Q105 623 105 691Q105 771 147 827Q189 883 259 912.5Q329 942 415 942Z" />
    <path transform="translate(36049 0)" d="M532 44Q616 44 677.5 88Q739 132 773 221.5Q807 311 807 446Q807 588 773.5 684Q740 780 678.5 829.5Q617 879 530 879Q446 879 384 834.5Q322 790 288.5 700.5Q255 611 255 476Q255 335 288 238.5Q321 142 383.5 93Q446 44 532 44ZM527 -20Q397 -20 294.5 40.5Q192 101 133 208.5Q74 316 74 456Q74 597 135 707Q196 817 300 879.5Q404 942 534 942Q666 942 768 881.5Q870 821 928.5 714Q987 607 987 467Q987 325 926 215Q865 105 760.5 42.5Q656 -20 527 -20Z" />
    <path transform="translate(37058 0)" d="M358 759L358 74L508 33L508 0L48 0L48 33L197 74L197 748Q181 762 150 779Q119 796 51 827L51 849L326 947L340 947ZM652 33L803 74L803 616Q803 675 779.5 717Q756 759 710 780.5Q664 802 594 802Q515 802 446 776Q377 750 342 716L314 744Q377 801 428.5 839.5Q480 878 525.5 900.5Q571 923 615.5 932.5Q660 942 710 942Q842 942 903 864Q964 786 964 617L964 74L1114 33L1114 0L652 0Z" />
    <path transform="translate(38597 0)" d="M324 249Q324 179 367 144Q410 109 486 109Q524 109 568 116.5Q612 124 667 140L667 100Q594 54 545 28Q496 2 458.5 -8Q421 -18 382 -18Q320 -18 270.5 7Q221 32 192 84Q163 136 163 216L163 790L47 866L47 883Q64 895 85 910Q106 925 130 942Q154 959 181.5 979Q209 999 239.5 1020.5Q270 1042 302 1065L324 1065L324 890ZM265 824L265 922L638 922L622 824Z" />
    <path transform="translate(39240 0)" d="M633 33L784 74L784 616Q784 675 760.5 717Q737 759 691 780.5Q645 802 576 802Q497 802 427.5 776Q358 750 324 716L295 744Q359 801 410.5 839.5Q462 878 507 900.5Q552 923 597 932.5Q642 942 691 942Q823 942 884 864Q945 786 945 617L945 74L1095 33L1095 0L633 0ZM490 0L30 0L30 33L178 74L178 1258Q165 1269 143 1283Q121 1297 90 1312.5Q59 1328 20 1345L20 1364L332 1445L345 1445L339 1096L339 74L490 33Z" />
    <path transform="translate(40313 0)" d="M507 942Q607 942 681 899Q755 856 798.5 772.5Q842 689 852 568L220 568L221 631L750 646L678 604Q670 691 647 751.5Q624 812 584.5 843.5Q545 875 485 875Q411 875 356 833Q301 791 271 711Q241 631 241 516Q241 382 284.5 291.5Q328 201 408 155Q488 109 598 109Q643 109 686 121Q729 133 769.5 157.5Q810 182 843 217L865 197Q810 120 753.5 72Q697 24 635 2Q573 -20 500 -20Q378 -20 282 37.5Q186 95 130.5 199.5Q75 304 75 447Q75 582 126.5 694.5Q178 807 275 874.5Q372 942 507 942Z" />
    <path transform="translate(41566 0)" d="M348 523L348 601L1028 601L1028 523ZM1281 84L1432 35L1432 0L915 0L915 35L1092 82L615 1198L665 1198L227 85L401 35L401 0L-16 0L-16 35L137 87L668 1397L711 1397Z" />
    <path transform="translate(42925 0)" d="M324 249Q324 179 367 144Q410 109 486 109Q524 109 568 116.5Q612 124 667 140L667 100Q594 54 545 28Q496 2 458.5 -8Q421 -18 382 -18Q320 -18 270.5 7Q221 32 192 84Q163 136 163 216L163 790L47 866L47 883Q64 895 85 910Q106 925 130 942Q154 959 181.5 979Q209 999 239.5 1020.5Q270 1042 302 1065L324 1065L324 890ZM265 824L265 922L638 922L622 824Z" />
    <path transform="translate(43568 0)" d="M358 759L358 74L502 33L502 0L48 0L48 33L197 74L197 748Q181 762 150 779Q119 796 51 827L51 849L326 947L340 947ZM924 676L924 74L1067 33L1067 0L617 0L617 33L762 74L762 631Q762 688 739.5 726Q717 764 674 783Q631 802 571 802Q501 802 436.5 779Q372 756 340 723L313 756Q373 810 421 846Q469 882 512 903Q555 924 596.5 933Q638 942 685 942Q771 942 823 908Q875 874 899.5 814Q924 754 924 676ZM1489 641L1489 74L1638 33L1638 0L1183 0L1183 33L1327 74L1327 631Q1327 689 1304.5 726.5Q1282 764 1239.5 783Q1197 802 1136 802Q1067 802 1002.5 779Q938 756 906 723L879 756Q939 810 987 846Q1035 882 1077.5 903Q1120 924 1162 933Q1204 942 1250 942Q1377 942 1433 866Q1489 790 1489 641Z" />
    <path transform="translate(45159 0)" d="M532 44Q616 44 677.5 88Q739 132 773 221.5Q807 311 807 446Q807 588 773.5 684Q740 780 678.5 829.5Q617 879 530 879Q446 879 384 834.5Q322 790 288.5 700.5Q255 611 255 476Q255 335 288 238.5Q321 142 383.5 93Q446 44 532 44ZM527 -20Q397 -20 294.5 40.5Q192 101 133 208.5Q74 316 74 456Q74 597 135 707Q196 817 300 879.5Q404 942 534 942Q666 942 768 881.5Q870 821 928.5 714Q987 607 987 467Q987 325 926 215Q865 105 760.5 42.5Q656 -20 527 -20Z" />
    <path transform="translate(46168 0)" d="M415 942Q476 942 525.5 929.5Q575 917 633 888L655 637L616 637L506 892L578 806Q534 846 495.5 864.5Q457 883 406 883Q327 883 281.5 847Q236 811 236 745Q236 699 258.5 666.5Q281 634 327.5 606.5Q374 579 447 549Q501 527 544 500Q587 473 616.5 439Q646 405 662 361.5Q678 318 678 262Q678 175 632.5 111.5Q587 48 511 14Q435 -20 340 -20Q275 -20 223 -9Q171 2 122 26L72 297L114 297L261 17L168 85Q201 66 228 56Q255 46 280 41.5Q305 37 330 37Q421 37 481.5 80Q542 123 542 208Q542 248 525.5 277.5Q509 307 478.5 331Q448 355 406 376Q364 397 312 419Q244 449 198 485.5Q152 522 128.5 572.5Q105 623 105 691Q105 771 147 827Q189 883 259 912.5Q329 942 415 942Z" />
    <path transform="translate(46875 0)" d="M869 446Q869 632 791 727Q713 822 575 822Q518 822 466 811Q414 800 367.5 777Q321 754 279 716L273 766Q333 816 386 849.5Q439 883 485.5 903.5Q532 924 573.5 933Q615 942 651 942Q779 942 868 887Q957 832 1003 734.5Q1049 637 1049 507Q1049 343 982.5 225Q916 107 803 43.5Q690 -20 549 -20Q497 -20 445 -12Q393 -4 341 13.5Q289 31 235 59L340 59L340 -410L507 -451L507 -484L30 -484L30 -451L178 -410L178 748Q165 760 145.5 771.5Q126 783 97.5 796.5Q69 810 32 827L32 849L308 947L322 947L340 807L340 255Q340 196 371 149Q402 102 457.5 75.5Q513 49 585 49Q675 49 738.5 96.5Q802 144 835.5 233Q869 322 869 446Z" />
    <path transform="translate(47956 0)" d="M633 33L784 74L784 616Q784 675 760.5 717Q737 759 691 780.5Q645 802 576 802Q497 802 427.5 776Q358 750 324 716L295 744Q359 801 410.5 839.5Q462 878 507 900.5Q552 923 597 932.5Q642 942 691 942Q823 942 884 864Q945 786 945 617L945 74L1095 33L1095 0L633 0ZM490 0L30 0L30 33L178 74L178 1258Q165 1269 143 1283Q121 1297 90 1312.5Q59 1328 20 1345L20 1364L332 1445L345 1445L339 1096L339 74L490 33Z" />
    <path transform="translate(49029 0)" d="M507 942Q607 942 681 899Q755 856 798.5 772.5Q842 689 852 568L220 568L221 631L750 646L678 604Q670 691 647 751.5Q624 812 584.5 843.5Q545 875 485 875Q411 875 356 833Q301 791 271 711Q241 631 241 516Q241 382 284.5 291.5Q328 201 408 155Q488 109 598 109Q643 109 686 121Q729 133 769.5 157.5Q810 182 843 217L865 197Q810 120 753.5 72Q697 24 635 2Q573 -20 500 -20Q378 -20 282 37.5Q186 95 130.5 199.5Q75 304 75 447Q75 582 126.5 694.5Q178 807 275 874.5Q372 942 507 942Z" />
    <path transform="translate(49908 0)" d="M658 937Q706 937 730 912.5Q754 888 754 847Q754 799 723.5 769.5Q693 740 643 740Q621 740 598.5 747Q576 754 551.5 761Q527 768 497 768Q472 768 444.5 760Q417 752 391 737.5Q365 723 342 704L329 742Q395 801 445 838.5Q495 876 533.5 897.5Q572 919 602.5 928Q633 937 658 937ZM358 759L358 74L516 33L516 0L48 0L48 33L197 74L197 748Q184 760 164 771.5Q144 783 116 796.5Q88 810 51 827L51 849L338 947L352 947Z" />
    <path transform="translate(50631 0)" d="M507 942Q607 942 681 899Q755 856 798.5 772.5Q842 689 852 568L220 568L221 631L750 646L678 604Q670 691 647 751.5Q624 812 584.5 843.5Q545 875 485 875Q411 875 356 833Q301 791 271 711Q241 631 241 516Q241 382 284.5 291.5Q328 201 408 155Q488 109 598 109Q643 109 686 121Q729 133 769.5 157.5Q810 182 843 217L865 197Q810 120 753.5 72Q697 24 635 2Q573 -20 500 -20Q378 -20 282 37.5Q186 95 130.5 199.5Q75 304 75 447Q75 582 126.5 694.5Q178 807 275 874.5Q372 942 507 942Z" />
  </g>
</svg>
